<svg width="96" height="96" xmlns="http://www.w3.org/2000/svg" xmlns:xlink="http://www.w3.org/1999/xlink" overflow="hidden"><defs><clipPath id="clip0"><rect x="547" y="352" width="96" height="96"/></clipPath></defs><g clip-path="url(#clip0)" transform="translate(-547 -352)"><path d="M603.771 363 605.771 363 605.771 374 603.771 374Z"/><path d="M623.771 392 634.771 392 634.771 394 623.771 394Z"/><path d="M574.771 392 585.771 392 585.771 394 574.771 394Z"/><path d="M617.5 407.142 618.914 405.727 626.692 413.506 625.278 414.92Z"/><path d="M582.851 372.494 584.265 371.08 592.044 378.858 590.629 380.272Z"/><path d="M617.5 378.858 625.278 371.08 626.692 372.494 618.914 380.272Z"/><path d="M604.31 378.007C596.628 378.301 590.388 384.312 589.806 391.978 589.676 393.882 589.912 395.794 590.501 397.61 591.602 398.186 592.643 398.872 593.607 399.657 593.628 399.674 593.633 399.669 593.619 399.646 592.099 397.122 591.489 394.153 591.891 391.233 592.859 384.119 599.411 379.137 606.525 380.104 613.639 381.072 618.622 387.624 617.654 394.738 616.934 400.031 613.049 404.345 607.86 405.614 608.516 406.077 609.134 406.591 609.709 407.151 617.529 404.428 621.66 395.882 618.938 388.062 616.783 381.874 610.859 377.802 604.31 378.007Z"/><path d="M564.56 438.424 612.572 438.524 612.583 438.524C618.348 438.384 622.908 433.598 622.769 427.833 622.768 427.789 622.766 427.745 622.765 427.701 622.563 421.996 617.862 417.484 612.153 417.517 612.153 417.517 611.608 417.519 611.427 417.522 610.854 410.769 605.232 405.564 598.454 405.512 597.337 405.512 596.224 405.654 595.142 405.935 590.672 398.617 581.116 396.309 573.799 400.779 569.622 403.331 566.893 407.702 566.435 412.575 566.028 412.535 565.618 412.515 565.208 412.515 561.264 412.535 557.539 414.333 555.069 417.408 552.146 421.221 551.524 426.321 553.446 430.725 555.413 435.173 559.704 438.146 564.56 438.424ZM556.631 418.658C558.721 416.056 561.872 414.534 565.208 414.515 565.555 414.515 565.902 414.531 566.239 414.565L568.225 414.76 568.424 412.774C568.96 407.016 573.097 402.236 578.719 400.88 584.427 399.464 590.392 401.932 593.43 406.968L594.2 408.244 595.643 407.871C596.561 407.633 597.505 407.512 598.454 407.512 600.763 407.502 603.013 408.241 604.867 409.619L604.896 409.64 604.926 409.661C607.569 411.506 609.228 414.455 609.432 417.672L609.574 419.563 612.153 419.517C616.787 419.483 620.606 423.145 620.766 427.777 620.855 430.043 620.023 432.249 618.458 433.891 616.933 435.526 614.812 436.476 612.576 436.524L564.63 436.424C560.539 436.164 556.932 433.652 555.27 429.904 553.647 426.187 554.168 421.881 556.631 418.658Z"/></g></svg>