<svg width="96" height="96" xmlns="http://www.w3.org/2000/svg" xmlns:xlink="http://www.w3.org/1999/xlink" overflow="hidden"><defs><clipPath id="clip0"><rect x="455" y="279" width="96" height="96"/></clipPath></defs><g clip-path="url(#clip0)" transform="translate(-455 -279)"><path d="M475.001 350.92C476.013 350.975 478.962 351 478.962 351L533.004 351C539.656 350.974 545.027 345.56 545 338.909 544.974 332.333 539.679 326.994 533.104 326.914L532.104 326.914C532.095 322.068 529.749 317.524 525.804 314.71 521.807 311.914 516.711 311.207 512.104 312.81 507.58 303.966 496.743 300.463 487.898 304.986 481.914 308.047 478.135 314.19 478.102 320.912L478.102 321.112C477.317 320.984 476.524 320.919 475.729 320.919 467.429 320.909 460.693 327.63 460.683 335.929 460.681 338.137 461.165 340.318 462.101 342.318 464.53 347.306 469.462 350.595 475.001 350.92ZM465.299 328.116C467.794 324.876 471.638 322.96 475.728 322.918 476.415 322.919 477.1 322.975 477.778 323.085L480.101 323.465 480.101 320.912C480.155 312.081 487.358 304.966 496.189 305.02 502.155 305.057 507.605 308.412 510.324 313.723L511.118 315.27 512.76 314.699C519.508 312.286 526.934 315.801 529.347 322.548 529.848 323.949 530.104 325.426 530.104 326.914L530.104 328.914 533.104 328.914C538.651 328.995 543.081 333.558 542.999 339.104 542.919 344.574 538.475 348.974 533.004 349L476.892 349 475.11 348.923C467.941 348.614 462.38 342.552 462.689 335.383 462.803 332.752 463.713 330.218 465.299 328.116Z"/></g></svg>