<svg width="96" height="96" xmlns="http://www.w3.org/2000/svg" xmlns:xlink="http://www.w3.org/1999/xlink" overflow="hidden"><defs><clipPath id="clip0"><rect x="686" y="406" width="96" height="96"/></clipPath></defs><g clip-path="url(#clip0)" transform="translate(-686 -406)"><path d="M764.805 442.3C763.121 440.851 760.973 440.054 758.752 440.053 758.2 440.054 757.649 440.103 757.105 440.2L757.105 440C757.101 436.173 755.283 432.574 752.205 430.3 750.178 428.8 747.722 427.993 745.2 428 743.913 428 742.633 428.203 741.409 428.6 738.862 423.9 733.935 420.983 728.589 421.009 727.451 421.009 726.317 421.14 725.209 421.4 718.787 422.918 714.215 428.602 714.109 435.2 709.771 434.495 705.396 436.223 702.709 439.7 700.001 443.142 699.424 447.801 701.209 451.8 702.935 455.837 706.737 458.602 711.109 459L759.109 459C764.349 458.733 768.38 454.269 768.113 449.029 767.981 446.428 766.786 443.995 764.809 442.3ZM765.712 451.952C764.699 454.814 762.08 456.799 759.05 457L711.2 457C705.691 456.422 701.694 451.489 702.271 445.98 702.464 444.14 703.162 442.39 704.288 440.922 706.184 438.483 709.098 437.052 712.188 437.045 712.724 437.045 713.259 437.088 713.788 437.174L716.074 437.546 716.11 435.23C716.187 429.544 720.129 424.642 725.666 423.347 726.625 423.123 727.606 423.009 728.59 423.009 733.2 422.975 737.452 425.488 739.646 429.543L740.435 431.019 742.027 430.502C743.052 430.169 744.123 430 745.2 430 747.294 429.992 749.335 430.662 751.017 431.91 753.577 433.813 755.092 436.81 755.105 440L755.105 442.589 757.456 442.169C759.616 441.779 761.836 442.383 763.5 443.815 765.783 445.85 766.65 449.041 765.712 451.952Z"/><path d="M716.237 467.064C715.966 466.583 715.357 466.412 714.876 466.682L712.005 468.292 712.005 465C712.005 464.448 711.557 464 711.005 464 710.453 464 710.005 464.448 710.005 465L710.005 468.292 707.134 466.682C706.653 466.41 706.043 466.58 705.772 467.061 705.5 467.542 705.67 468.152 706.151 468.424 706.152 468.424 706.154 468.425 706.155 468.426L708.961 470 706.155 471.574C705.673 471.843 705.5 472.452 705.769 472.935 706.038 473.417 706.648 473.59 707.13 473.32 707.131 473.32 707.133 473.319 707.134 473.318L710.005 471.708 710.005 475C710.005 475.552 710.453 476 711.005 476 711.557 476 712.005 475.552 712.005 475L712.005 471.708 714.876 473.318C715.357 473.588 715.966 473.417 716.237 472.936 716.507 472.454 716.336 471.845 715.855 471.574 715.854 471.574 715.854 471.574 715.854 471.574L713.049 470 715.854 468.426C716.336 468.156 716.507 467.547 716.237 467.065 716.237 467.065 716.237 467.064 716.237 467.064Z"/><path d="M762.6 467.064C762.33 466.582 761.72 466.411 761.238 466.682 761.238 466.682 761.238 466.682 761.238 466.682L758.366 468.293 758.366 465C758.366 464.448 757.918 464 757.366 464 756.814 464 756.366 464.448 756.366 465L756.366 468.292 753.495 466.682C753.019 466.401 752.406 466.559 752.125 467.035 751.845 467.51 752.003 468.123 752.478 468.404 752.491 468.412 752.504 468.419 752.517 468.426L755.322 470 752.516 471.574C752.034 471.844 751.863 472.454 752.133 472.935 752.311 473.251 752.644 473.446 753.006 473.446 753.177 473.446 753.345 473.402 753.494 473.318L756.365 471.708 756.365 475C756.365 475.552 756.813 476 757.365 476 757.917 476 758.365 475.552 758.365 475L758.365 471.707 761.237 473.318C761.718 473.59 762.328 473.42 762.599 472.939 762.871 472.458 762.701 471.848 762.22 471.576 762.219 471.576 762.217 471.575 762.216 471.574L759.409 470 762.216 468.426C762.698 468.156 762.87 467.547 762.601 467.065 762.6 467.065 762.6 467.064 762.6 467.064Z"/><path d="M742.62 468.931C742.34 468.455 741.727 468.296 741.251 468.576 741.251 468.576 741.251 468.576 741.251 468.576L735 472.252 735 465C735 464.448 734.552 464 734 464 733.448 464 733 464.448 733 465L733 472.252 726.749 468.576C726.273 468.296 725.66 468.455 725.38 468.931 725.1 469.407 725.259 470.02 725.735 470.3L732.028 474 725.735 477.7C725.259 477.98 725.1 478.593 725.38 479.069 725.66 479.545 726.273 479.704 726.749 479.424L733 475.748 733 483C733 483.552 733.448 484 734 484 734.552 484 735 483.552 735 483L735 475.748 741.251 479.424C741.727 479.704 742.34 479.545 742.62 479.069 742.9 478.593 742.741 477.98 742.265 477.7L735.972 474 742.265 470.3C742.741 470.02 742.9 469.407 742.62 468.931 742.62 468.931 742.62 468.931 742.62 468.931Z"/></g></svg>