<svg width="96" height="96" xmlns="http://www.w3.org/2000/svg" xmlns:xlink="http://www.w3.org/1999/xlink" overflow="hidden"><defs><clipPath id="clip0"><rect x="759" y="309" width="96" height="96"/></clipPath></defs><g clip-path="url(#clip0)" transform="translate(-759 -309)"><path d="M807.007 379.02C819.161 379.024 829.017 369.174 829.021 357.02 829.025 344.866 819.175 335.01 807.021 335.006 794.867 335.002 785.011 344.852 785.007 357.006 785.007 357.008 785.007 357.011 785.007 357.013 785.003 369.163 794.85 379.016 807 379.02 807.002 379.02 807.005 379.02 807.007 379.02ZM807.007 337.007C818.057 337.003 827.017 345.957 827.021 357.007 827.025 368.057 818.071 377.017 807.021 377.021 795.971 377.025 787.011 368.071 787.007 357.021 787.007 357.018 787.007 357.016 787.007 357.013 787.018 345.971 795.965 337.021 807.007 337.007Z"/><path d="M806.005 313 808.005 313 808.005 331 806.005 331Z"/><path d="M806.005 383 808.005 383 808.005 401 806.005 401Z"/><path d="M833.005 356 851.005 356 851.005 358 833.005 358Z"/><path d="M763.005 356 781.005 356 781.005 358 763.005 358Z"/><path d="M824.683 376.092 826.097 374.677 838.825 387.405 837.411 388.82Z"/><path d="M775.185 326.595 776.599 325.181 789.327 337.908 787.913 339.323Z"/><path d="M775.185 387.406 787.913 374.678 789.327 376.092 776.599 388.82Z"/><path d="M824.683 337.909 837.411 325.181 838.826 326.595 826.098 339.323Z"/></g></svg>