<svg width="96" height="96" xmlns="http://www.w3.org/2000/svg" xmlns:xlink="http://www.w3.org/1999/xlink" overflow="hidden"><defs><clipPath id="clip0"><rect x="368" y="354" width="96" height="96"/></clipPath></defs><g clip-path="url(#clip0)" transform="translate(-368 -354)"><path d="M410.68 370.95C415.289 370.945 419.526 373.48 421.7 377.544L422.492 379.023 424.086 378.5C429.333 376.777 434.984 379.635 436.706 384.882 437.036 385.888 437.205 386.941 437.205 388L437.205 390.318 439.498 389.978C439.708 389.947 439.921 389.925 440.132 389.912 440.294 389.901 440.455 389.896 440.615 389.896 444.791 389.895 448.177 393.279 448.179 397.454 448.18 401.429 445.104 404.726 441.139 405L393.276 405C392.906 404.956 392.539 404.892 392.176 404.807 386.746 403.799 383.161 398.58 384.169 393.15 385.048 388.414 389.178 384.978 393.995 384.975 394.614 384.975 395.232 385.032 395.841 385.146L398.165 385.579 398.207 383.216C398.334 376.414 403.877 370.964 410.68 370.95M410.68 368.95C402.786 368.962 396.352 375.287 396.205 383.18 389.685 381.993 383.437 386.316 382.249 392.836 381.069 399.317 385.334 405.538 391.805 406.773 392.267 406.876 392.734 406.952 393.205 407L441.205 407C446.473 406.643 450.455 402.083 450.098 396.815 449.76 391.818 445.623 387.929 440.615 387.9 440.415 387.9 440.215 387.907 440.007 387.92 439.739 387.936 439.471 387.965 439.207 388.004 439.207 381.377 433.834 376.004 427.207 376.004L427.207 376.004C425.937 376.005 424.676 376.208 423.469 376.604 420.946 371.887 416.029 368.945 410.68 368.95Z"/><path d="M416.005 421.083C413.305 421.083 411.161 419.569 409.092 418.104 406.892 416.551 404.823 415.083 402.005 415.083 397.493 415.083 393.748 418.754 393.711 418.791 393.304 419.164 392.672 419.137 392.298 418.73 391.946 418.347 391.947 417.758 392.3 417.376 392.475 417.201 396.654 413.083 402.007 413.083 405.462 413.083 408.007 414.883 410.249 416.472 412.228 417.872 413.938 419.083 416.007 419.083 418.076 419.083 419.785 417.873 421.765 416.472 424.009 414.884 426.552 413.083 430.007 413.083 435.359 413.083 439.539 417.201 439.714 417.376 440.105 417.767 440.105 418.4 439.715 418.79 439.324 419.181 438.691 419.182 438.3 418.791 438.263 418.754 434.518 415.083 430.006 415.083 427.187 415.083 425.114 416.551 422.919 418.104 420.849 419.569 418.709 421.083 416.005 421.083Z"/><path d="M416.005 433.083C413.305 433.083 411.161 431.569 409.092 430.104 406.892 428.551 404.823 427.083 402.005 427.083 397.493 427.083 393.748 430.754 393.711 430.791 393.304 431.164 392.672 431.137 392.298 430.73 391.946 430.347 391.947 429.758 392.3 429.376 392.475 429.201 396.654 425.083 402.007 425.083 405.462 425.083 408.007 426.883 410.249 428.472 412.228 429.872 413.938 431.083 416.007 431.083 418.076 431.083 419.785 429.873 421.765 428.472 424.009 426.884 426.552 425.083 430.007 425.083 435.359 425.083 439.539 429.201 439.714 429.376 440.105 429.767 440.105 430.4 439.715 430.79 439.324 431.181 438.691 431.182 438.3 430.791 438.263 430.754 434.518 427.083 430.006 427.083 427.187 427.083 425.114 428.551 422.919 430.104 420.849 431.569 418.709 433.083 416.005 433.083Z"/></g></svg>