<svg width="96" height="96" xmlns="http://www.w3.org/2000/svg" xmlns:xlink="http://www.w3.org/1999/xlink" overflow="hidden"><defs><clipPath id="clip0"><rect x="616" y="268" width="96" height="96"/></clipPath></defs><g clip-path="url(#clip0)" transform="translate(-616 -268)"><path d="M664.098 328.531C666.541 332.398 669.105 337.121 669.105 338.899 669.105 341.66 666.866 343.899 664.105 343.899 661.343 343.899 659.105 341.66 659.105 338.899 659.105 337.07 661.661 332.367 664.098 328.531ZM664.105 324.899C664.105 324.899 657.105 334.999 657.105 338.899 657.105 342.765 660.239 345.899 664.105 345.899 667.971 345.899 671.105 342.765 671.105 338.899 671.105 335.099 664.105 324.899 664.105 324.899Z"/><path d="M681.097 328.571C682.734 331.252 684.105 333.959 684.105 334.899 684.105 336.556 682.762 337.899 681.105 337.899 679.448 337.899 678.105 336.556 678.105 334.899 678.105 333.922 679.467 331.224 681.097 328.571ZM681.105 324.899C681.105 324.899 676.105 332.099 676.105 334.899 676.105 337.66 678.343 339.899 681.105 339.899 683.866 339.899 686.105 337.66 686.105 334.899 686.105 332.199 681.105 324.899 681.105 324.899Z"/><path d="M647.097 328.571C648.735 331.252 650.105 333.959 650.105 334.899 650.105 336.556 648.762 337.899 647.105 337.899 645.448 337.899 644.105 336.556 644.105 334.899 644.105 333.922 645.467 331.224 647.097 328.571ZM647.105 324.899C647.105 324.899 642.105 332.099 642.105 334.899 642.105 337.66 644.343 339.899 647.105 339.899 649.866 339.899 652.105 337.66 652.105 334.899 652.105 332.199 647.105 324.899 647.105 324.899Z"/><path d="M658.572 284.973 658.572 284.973C663.162 284.967 667.38 287.493 669.541 291.543L670.33 293.019 671.922 292.502C672.947 292.168 674.018 291.997 675.096 291.996 677.19 291.987 679.231 292.657 680.913 293.906L680.942 293.928 680.972 293.948C683.591 295.788 685.137 298.799 685.105 302L685.105 304.489 687.456 304.069C687.884 303.992 688.318 303.954 688.752 303.953 690.496 303.956 692.181 304.582 693.503 305.719 695.159 307.141 696.11 309.217 696.105 311.4 696.138 315.442 692.981 318.793 688.944 319L641.074 319C635.561 318.57 631.44 313.753 631.87 308.239 632.276 303.031 636.619 299.01 641.843 299.005 642.448 299.005 643.052 299.06 643.647 299.168L645.969 299.59 646.004 297.23C646.197 290.421 651.761 284.995 658.572 284.973M658.572 282.973C650.668 282.995 644.214 289.298 644.005 297.2 643.292 297.07 642.568 297.005 641.843 297.005 635.211 296.968 629.804 302.315 629.767 308.948 629.731 315.307 634.659 320.591 641.005 321L689.005 321C694.118 320.749 698.128 316.519 698.105 311.4 698.115 308.632 696.909 305.999 694.805 304.2 692.685 302.377 689.857 301.605 687.105 302.1L687.105 302C687.05 295.391 681.704 290.048 675.096 289.996 673.808 289.998 672.529 290.201 671.305 290.6 668.787 285.909 663.896 282.979 658.572 282.973Z"/></g></svg>