<svg width="96" height="96" xmlns="http://www.w3.org/2000/svg" xmlns:xlink="http://www.w3.org/1999/xlink" overflow="hidden"><defs><clipPath id="clip0"><rect x="503" y="467" width="96" height="96"/></clipPath></defs><g clip-path="url(#clip0)" transform="translate(-503 -467)"><path d="M545.605 484.078C550.193 484.073 554.411 486.598 556.574 490.644L557.366 492.122 558.96 491.6C564.187 489.88 569.818 492.723 571.538 497.95 571.868 498.954 572.037 500.005 572.037 501.062L572.037 503.554 574.366 503.164C574.774 503.097 575.187 503.063 575.6 503.064 579.729 503.12 583.03 506.512 582.974 510.641 582.921 514.544 579.873 517.75 575.977 518L528.962 518 528.29 517.955C522.801 517.589 518.648 512.842 519.015 507.353 519.381 501.863 524.128 497.711 529.617 498.077 530.007 498.103 530.396 498.152 530.78 498.224L533.105 498.659 533.148 496.294C533.282 489.51 538.819 484.079 545.605 484.078M545.605 482.078C537.729 482.079 531.302 488.383 531.148 496.258 524.637 495.071 518.397 499.387 517.21 505.897 516.023 512.408 520.339 518.648 526.849 519.835 527.281 519.914 527.718 519.969 528.156 520L576.031 520C581.258 519.764 585.304 515.335 585.067 510.108 584.831 504.881 580.402 500.835 575.175 501.071 574.794 501.089 574.414 501.129 574.037 501.192L574.037 501.062C574.034 494.454 568.675 489.099 562.067 489.102 560.8 489.103 559.541 489.305 558.337 489.7 555.821 485.008 550.929 482.079 545.605 482.078Z"/><path d="M551.131 548.908C550.579 548.908 550.131 548.46 550.131 547.908 550.131 547.794 550.151 547.68 550.189 547.573L553.44 538.409 546.473 538.409 549.773 524.767C549.894 524.228 550.43 523.89 550.968 524.011 551.507 524.133 551.846 524.668 551.724 525.207 551.722 525.217 551.719 525.226 551.717 525.236L549.017 536.409 556.275 536.409 552.075 548.242C551.933 548.642 551.555 548.909 551.131 548.908Z"/><path d="M536.208 537.077C535.656 537.077 535.208 536.63 535.207 536.078 535.207 535.963 535.227 535.85 535.265 535.742L536.592 532 532.782 532 534.531 524.767C534.652 524.228 535.188 523.89 535.726 524.011 536.265 524.133 536.604 524.668 536.482 525.207 536.48 525.217 536.477 525.226 536.475 525.236L535.323 530 539.423 530 537.15 536.411C537.009 536.81 536.631 537.077 536.208 537.077Z"/><path d="M566.163 537.077C565.611 537.077 565.163 536.63 565.162 536.078 565.162 535.963 565.182 535.85 565.22 535.742L566.548 532 562.738 532 564.486 524.767C564.615 524.23 565.156 523.899 565.693 524.029 566.23 524.159 566.56 524.699 566.431 525.236L565.279 530 569.379 530 567.104 536.411C566.963 536.81 566.586 537.076 566.163 537.077Z"/></g></svg>